<?xml version="1.0" standalone="no"?><!DOCTYPE svg PUBLIC "-//W3C//DTD SVG 1.1//EN" "http://www.w3.org/Graphics/SVG/1.1/DTD/svg11.dtd"><svg t="1747987832690" class="icon" viewBox="0 0 1024 1024" version="1.1" xmlns="http://www.w3.org/2000/svg" p-id="23978" xmlns:xlink="http://www.w3.org/1999/xlink" width="200" height="200"><path d="M212.252444 825.457778a28.444444 28.444444 0 0 1 0 40.220444l-80.440888 80.440889a28.444444 28.444444 0 0 1-40.220445 0l-8.021333-8.021333a28.444444 28.444444 0 0 1 0-40.220445l80.440889-80.440889a28.444444 28.444444 0 0 1 40.220444 0l8.021333 8.021334z m170.666667 0a28.444444 28.444444 0 0 1 0 40.220444l-80.440889 80.440889a28.444444 28.444444 0 0 1-40.220444 0l-8.021334-8.021333a28.444444 28.444444 0 0 1 0-40.220445l80.440889-80.440889a28.444444 28.444444 0 0 1 40.220445 0l8.021333 8.021334z m-176.355555-152.860445a28.444444 28.444444 0 0 1 0 40.277334l-40.220445 40.220444a28.444444 28.444444 0 0 1-40.220444 0l-8.078223-8.078222a28.444444 28.444444 0 0 1 0-40.220445l40.220445-40.220444a28.444444 28.444444 0 0 1 40.277333 0l8.021334 8.021333z m707.697777-572.017777l5.290667 28.444444c31.402667 168.504889-27.704889 351.004444-155.136 478.435556l-5.347556 5.347555c20.821333 64.625778 1.536 138.524444-49.777777 189.838222-57.628444 57.457778-143.36 74.979556-213.617778 42.268445l-45.909333-21.447111 28.899555-41.585778c5.745778-8.305778 10.752-16.782222 15.018667-25.486222l-14.677334 3.413333-13.653333 2.901333-12.913778 2.446223a323.470222 323.470222 0 0 1-24.177777 3.356444l-20.024889 1.877333-166.570667-166.684444 2.275556-20.366222c1.934222-17.635556 5.12-37.148444 9.329777-57.287111a118.272 118.272 0 0 0-18.318222 12.174222l-42.439111 34.531555-23.153778-49.607111c-32.085333-68.835556-14.051556-157.297778 42.268445-213.617778 48.469333-48.469333 116.565333-67.413333 176.583111-53.930666l10.524444 2.730666 8.248889-8.248888c129.024-128.967111 309.930667-188.472889 478.890667-155.079112l28.330666 5.575112zM839.964444 174.08l-15.928888-1.592889c-127.032889-10.183111-259.072 40.220444-356.750223 137.955556l-17.464889 17.408c-15.246222 16.327111-38.172444 22.983111-64.284444 15.928889-38.115556-14.449778-82.602667-4.949333-113.607111 26.055111a115.484444 115.484444 0 0 0-32.540445 68.835555c14.165333-5.404444 29.013333-9.614222 44.373334-12.401778l5.802666-0.682666 6.656-0.113778c14.336 0.227556 26.168889 3.982222 38.627556 16.384a51.313778 51.313778 0 0 1 12.515556 56.775111c-6.542222 24.064-12.288 50.460444-15.985778 74.183111l107.918222 107.975111c6.485333-1.137778 13.539556-2.56 21.048889-4.266666 9.159111-2.048 18.659556-4.323556 28.16-6.826667l14.222222-3.868444 18.602667-5.347556 10.24-1.820444c17.408-0.910222 31.232 2.048 45.511111 16.327111s17.066667 27.648 16.327111 45.226666l-0.682667 5.859556c-3.185778 17.066667-7.964444 33.564444-14.392889 49.493333a113.322667 113.322667 0 0 0 70.542223-33.28c31.914667-31.914667 41.528889-77.653333 25.144889-112.810666l-2.616889-7.395556a60.302222 60.302222 0 0 1 16.384-58.709333l16.213333-16.213334C800.369778 450.844444 850.488889 317.44 841.386667 190.008889l-1.422223-15.928889z m-118.556444 128.455111a85.447111 85.447111 0 0 1 0 120.661333 85.447111 85.447111 0 0 1-120.661333 0 85.447111 85.447111 0 0 1 0-120.661333 85.447111 85.447111 0 0 1 120.661333 0z" fill="#595959" p-id="23979"></path></svg>