<?xml version="1.0" standalone="no"?><!DOCTYPE svg PUBLIC "-//W3C//DTD SVG 1.1//EN" "http://www.w3.org/Graphics/SVG/1.1/DTD/svg11.dtd"><svg t="1747986877240" class="icon" viewBox="0 0 1024 1024" version="1.1" xmlns="http://www.w3.org/2000/svg" p-id="7003" xmlns:xlink="http://www.w3.org/1999/xlink" width="200" height="200"><path d="M638.72 808.533333 529.493333 551.253333C485.973333 636.16 438.186667 725.333333 397.226667 808.533333 396.8 808.96 377.173333 808.533333 377.173333 808.533333 314.453333 661.333333 249.6 516.266667 186.453333 370.346667 171.946667 334.506667 120.746667 277.333333 85.333333 277.333333 85.333333 273.066667 85.333333 263.68 85.333333 258.133333L301.226667 258.133333 301.226667 277.333333C275.626667 277.333333 232.106667 294.4 243.2 322.133333 273.92 387.84 381.44 642.56 410.88 707.413333 430.933333 667.306667 487.68 561.493333 512 516.693333 492.8 479.146667 432.213333 338.346667 414.293333 303.36 400.64 280.32 366.08 277.333333 339.626667 277.333333 339.626667 270.933333 340.053333 266.666667 339.626667 258.56L529.92 258.986667 529.92 276.053333C503.893333 277.333333 479.573333 286.293333 490.666667 311.04 516.266667 363.946667 531.2 401.92 554.666667 450.986667 561.92 436.48 600.32 357.546667 618.666667 316.16 629.76 288.426667 613.12 277.333333 567.04 277.333333 567.466667 272.213333 567.466667 263.253333 567.466667 258.986667 626.773333 258.56 715.946667 258.56 731.733333 258.133333L731.733333 276.053333C701.44 277.333333 670.293333 293.546667 654.08 318.293333L576 482.133333C583.68 503.893333 659.626667 672.426667 667.733333 691.2L832 314.453333C819.2 283.733333 782.506667 277.333333 768 277.333333 768 271.786667 768 264.533333 768 258.133333L938.666667 259.413333 938.666667 260.266667 938.666667 277.333333C901.12 277.333333 877.653333 298.666667 864 330.666667 829.866667 407.04 725.333333 650.24 657.066667 808.533333 657.066667 808.533333 638.72 808.533333 638.72 808.533333Z" p-id="7004"></path></svg>